<?xml version="1.0" encoding="utf-8"?>
<!-- Generator: Adobe Illustrator 15.0.2, SVG Export Plug-In . SVG Version: 6.00 Build 0)  -->
<!DOCTYPE svg PUBLIC "-//W3C//DTD SVG 1.1//EN" "http://www.w3.org/Graphics/SVG/1.1/DTD/svg11.dtd">
<svg version="1.1" id="Calque_1" xmlns="http://www.w3.org/2000/svg" xmlns:xlink="http://www.w3.org/1999/xlink" x="0px" y="0px"
	 width="96px" height="24px" viewBox="0 0 96 24" enable-background="new 0 0 96 24" xml:space="preserve">
<g>
	<path fill="#2E2E2D" d="M23.759,11.985L12.657,1.863c-0.168-0.153-0.405-0.19-0.656-0.162c-0.252-0.029-0.489,0.008-0.658,0.162
		L0.242,11.985c-0.4,0.365-0.292,1.135,0.242,1.72c0.534,0.586,1.291,0.766,1.691,0.398L12,5.148l9.825,8.958
		c0.399,0.365,1.157,0.188,1.69-0.398C24.051,13.12,24.158,12.35,23.759,11.985z"/>
	<path fill="#2E2E2D" d="M12.395,6.644c-0.194-0.171-0.513-0.173-0.707-0.003l-7.396,6.431c-0.195,0.17-0.355,0.521-0.355,0.779
		v7.985c0,0.259,0.211,0.472,0.47,0.472h4.746c0.258,0,0.47-0.213,0.47-0.472v-6.153c0-0.261,0.211-0.472,0.47-0.472h3.806
		c0.26,0,0.472,0.211,0.472,0.472v6.153c0,0.259,0.211,0.472,0.47,0.472h4.698c0.259,0,0.47-0.213,0.47-0.472v-7.985
		c0-0.261-0.156-0.61-0.354-0.781L12.395,6.644z"/>
	<path fill="#2E2E2D" d="M19.659,7.332c0.19,0.174,0.347,0.105,0.347-0.153V3.467c0-0.258-0.211-0.47-0.47-0.47h-2.771
		c-0.261,0-0.473,0.211-0.473,0.47v0.329c0,0.258,0.156,0.612,0.35,0.786L19.659,7.332z"/>
</g>
<g opacity="0.5">
	<path fill="#2E2E2D" d="M95.759,11.985L84.657,1.863c-0.168-0.153-0.405-0.19-0.656-0.162c-0.252-0.029-0.489,0.008-0.658,0.162
		L72.242,11.985c-0.4,0.365-0.293,1.135,0.241,1.72c0.534,0.586,1.291,0.766,1.691,0.398L84,5.148l9.825,8.958
		c0.399,0.365,1.157,0.188,1.69-0.398C96.051,13.12,96.158,12.35,95.759,11.985z"/>
	<path fill="#2E2E2D" d="M84.395,6.644c-0.193-0.171-0.513-0.173-0.707-0.003l-7.396,6.431c-0.194,0.17-0.354,0.521-0.354,0.779
		v7.985c0,0.259,0.211,0.472,0.47,0.472h4.745c0.259,0,0.471-0.213,0.471-0.472v-6.153c0-0.261,0.211-0.472,0.47-0.472h3.806
		c0.26,0,0.472,0.211,0.472,0.472v6.153c0,0.259,0.211,0.472,0.47,0.472h4.698c0.259,0,0.47-0.213,0.47-0.472v-7.985
		c0-0.261-0.156-0.61-0.354-0.781L84.395,6.644z"/>
	<path fill="#2E2E2D" d="M91.659,7.332c0.19,0.174,0.347,0.105,0.347-0.153V3.467c0-0.258-0.211-0.47-0.47-0.47h-2.771
		c-0.261,0-0.473,0.211-0.473,0.47v0.329c0,0.258,0.156,0.612,0.35,0.786L91.659,7.332z"/>
</g>
<g>
	<path fill="#0A7039" d="M47.758,11.985L36.656,1.863C36.488,1.71,36.252,1.673,36,1.702c-0.252-0.029-0.488,0.008-0.658,0.162
		L24.241,11.985c-0.4,0.365-0.292,1.135,0.241,1.72c0.535,0.586,1.291,0.766,1.691,0.398L36,5.148l9.824,8.958
		c0.4,0.365,1.158,0.188,1.691-0.398C48.051,13.12,48.158,12.35,47.758,11.985z"/>
	<path fill="#0A7039" d="M36.395,6.644c-0.193-0.171-0.514-0.173-0.707-0.003l-7.396,6.431c-0.193,0.17-0.354,0.521-0.354,0.779
		v7.985c0,0.259,0.211,0.472,0.469,0.472h4.746c0.258,0,0.471-0.213,0.471-0.472v-6.153c0-0.261,0.211-0.472,0.469-0.472h3.807
		c0.26,0,0.471,0.211,0.471,0.472v6.153c0,0.259,0.211,0.472,0.471,0.472h4.697c0.26,0,0.471-0.213,0.471-0.472v-7.985
		c0-0.261-0.156-0.61-0.354-0.781L36.395,6.644z"/>
	<path fill="#0A7039" d="M43.658,7.332c0.191,0.174,0.348,0.105,0.348-0.153V3.467c0-0.258-0.211-0.47-0.471-0.47h-2.77
		c-0.262,0-0.473,0.211-0.473,0.47v0.329c0,0.258,0.156,0.612,0.35,0.786L43.658,7.332z"/>
</g>
<g>
	<path fill="#0A7039" d="M71.758,11.985L60.656,1.863C60.488,1.71,60.252,1.673,60,1.702c-0.252-0.029-0.488,0.008-0.658,0.162
		L48.241,11.985c-0.4,0.365-0.292,1.135,0.241,1.72c0.535,0.586,1.291,0.766,1.691,0.398L60,5.148l9.824,8.958
		c0.4,0.365,1.158,0.188,1.691-0.398C72.051,13.12,72.158,12.35,71.758,11.985z"/>
	<path fill="#0A7039" d="M60.395,6.644c-0.193-0.171-0.514-0.173-0.707-0.003l-7.396,6.431c-0.193,0.17-0.354,0.521-0.354,0.779
		v7.985c0,0.259,0.211,0.472,0.469,0.472h4.746c0.258,0,0.471-0.213,0.471-0.472v-6.153c0-0.261,0.211-0.472,0.469-0.472h3.807
		c0.26,0,0.471,0.211,0.471,0.472v6.153c0,0.259,0.211,0.472,0.471,0.472h4.697c0.26,0,0.471-0.213,0.471-0.472v-7.985
		c0-0.261-0.156-0.61-0.354-0.781L60.395,6.644z"/>
	<path fill="#0A7039" d="M67.658,7.332c0.191,0.174,0.348,0.105,0.348-0.153V3.467c0-0.258-0.211-0.47-0.471-0.47h-2.77
		c-0.262,0-0.473,0.211-0.473,0.47v0.329c0,0.258,0.156,0.612,0.35,0.786L67.658,7.332z"/>
</g>
</svg>
