<?xml version="1.0" encoding="utf-8"?>
<!-- Generator: Adobe Illustrator 15.0.2, SVG Export Plug-In . SVG Version: 6.00 Build 0)  -->
<!DOCTYPE svg PUBLIC "-//W3C//DTD SVG 1.1//EN" "http://www.w3.org/Graphics/SVG/1.1/DTD/svg11.dtd">
<svg version="1.1" id="Calque_1" xmlns="http://www.w3.org/2000/svg" xmlns:xlink="http://www.w3.org/1999/xlink" x="0px" y="0px"
	 width="96px" height="24px" viewBox="0 0 96 24" enable-background="new 0 0 96 24" xml:space="preserve">
<path fill="#2E2E2D" d="M11.985,0C5.221,0,5.548,8.353,5.548,8.353S4.61,8.23,4.61,9.616c0,1.386,0.979,1.386,0.979,1.386
	c0,1.426,2.73,3.789,2.73,3.789v0.814C2.493,15.605,0.901,24,0.901,24h22.198c0,0-1.59-8.395-7.416-8.395v-0.814
	c0,0,2.73-2.363,2.73-3.789c0,0,0.979,0,0.979-1.386c0-1.385-0.938-1.263-0.938-1.263S18.78,0,12.018,0H11.985z"/>
<path fill="#0A7039" d="M35.984,0c-6.764,0-6.436,8.353-6.436,8.353s-0.939-0.123-0.939,1.263c0,1.386,0.979,1.386,0.979,1.386
	c0,1.426,2.73,3.789,2.73,3.789v0.814C26.492,15.605,24.9,24,24.9,24h22.198c0,0-1.59-8.395-7.416-8.395v-0.814
	c0,0,2.73-2.363,2.73-3.789c0,0,0.979,0,0.979-1.386c0-1.385-0.938-1.263-0.938-1.263S42.78,0,36.018,0H35.984z"/>
<path fill="#0A7039" d="M59.984,0c-6.764,0-6.436,8.353-6.436,8.353s-0.939-0.123-0.939,1.263c0,1.386,0.979,1.386,0.979,1.386
	c0,1.426,2.73,3.789,2.73,3.789v0.814C50.492,15.605,48.9,24,48.9,24h22.198c0,0-1.59-8.395-7.416-8.395v-0.814
	c0,0,2.73-2.363,2.73-3.789c0,0,0.979,0,0.979-1.386c0-1.385-0.938-1.263-0.938-1.263S66.78,0,60.018,0H59.984z"/>
<path opacity="0.5" fill="#2E2E2D" d="M83.978,0c-6.764,0-6.436,8.353-6.436,8.353s-0.939-0.123-0.939,1.263
	c0,1.386,0.979,1.386,0.979,1.386c0,1.426,2.73,3.789,2.73,3.789v0.814c-5.826,0-7.418,8.395-7.418,8.395h22.198
	c0,0-1.59-8.395-7.416-8.395v-0.814c0,0,2.73-2.363,2.73-3.789c0,0,0.979,0,0.979-1.386c0-1.385-0.938-1.263-0.938-1.263
	S90.773,0,84.011,0H83.978z"/>
</svg>
