<?xml version="1.0" encoding="utf-8"?>
<!-- Generator: Adobe Illustrator 15.0.2, SVG Export Plug-In . SVG Version: 6.00 Build 0)  -->
<!DOCTYPE svg PUBLIC "-//W3C//DTD SVG 1.1//EN" "http://www.w3.org/Graphics/SVG/1.1/DTD/svg11.dtd">
<svg version="1.1" id="Calque_1" xmlns="http://www.w3.org/2000/svg" xmlns:xlink="http://www.w3.org/1999/xlink" x="0px" y="0px"
	 width="96px" height="24px" viewBox="0 0 96 24" enable-background="new 0 0 96 24" xml:space="preserve">
<g>
	<path fill="#2E2E2D" d="M1.688,3.598l9.459,9.461c0.227,0.226,0.527,0.351,0.854,0.351s0.627-0.125,0.854-0.351l9.459-9.461H1.688z
		"/>
	<g>
		<path fill="#2E2E2D" d="M15.618,12.02l-1.882,1.883c-0.467,0.466-1.082,0.699-1.697,0.699s-1.229-0.233-1.696-0.699L8.422,11.98
			l-7.919,7.918c-0.053,0.056-0.104,0.097-0.157,0.142c0.219,0.224,0.523,0.362,0.859,0.362h21.59c0.337,0,0.641-0.141,0.859-0.362
			c-0.053-0.045-0.104-0.086-0.156-0.142L15.618,12.02z"/>
	</g>
	<g>
		<path fill="#2E2E2D" d="M0.542,4.101C0.48,4.04,0.439,3.979,0.389,3.922C0.15,4.142,0,4.454,0,4.803v13.91l7.577-7.576
			L0.542,4.101z"/>
		<path fill="#2E2E2D" d="M23.536,4.101l-7.074,7.075L24,18.713V4.803c0-0.327-0.133-0.624-0.346-0.841
			C23.614,4.008,23.584,4.053,23.536,4.101z"/>
	</g>
</g>
<g opacity="0.5">
	<path fill="#2E2E2D" d="M73.688,3.598l9.459,9.461c0.227,0.226,0.527,0.351,0.854,0.351s0.627-0.125,0.854-0.351l9.459-9.461
		H73.688z"/>
	<g>
		<path fill="#2E2E2D" d="M87.618,12.02l-1.882,1.883c-0.467,0.466-1.082,0.699-1.697,0.699s-1.229-0.233-1.696-0.699l-1.921-1.922
			l-7.919,7.918c-0.053,0.056-0.104,0.097-0.157,0.142c0.219,0.224,0.523,0.362,0.859,0.362h21.59c0.337,0,0.641-0.141,0.859-0.362
			c-0.053-0.045-0.104-0.086-0.156-0.142L87.618,12.02z"/>
	</g>
	<g>
		<path fill="#2E2E2D" d="M72.542,4.101c-0.062-0.061-0.103-0.121-0.153-0.179C72.15,4.142,72,4.454,72,4.803v13.91l7.577-7.576
			L72.542,4.101z"/>
		<path fill="#2E2E2D" d="M95.536,4.101l-7.074,7.075L96,18.713V4.803c0-0.327-0.133-0.624-0.346-0.841
			C95.614,4.008,95.584,4.053,95.536,4.101z"/>
	</g>
</g>
<g>
	<path fill="#0A7039" d="M25.688,3.598l9.459,9.461c0.227,0.226,0.527,0.351,0.854,0.351s0.627-0.125,0.854-0.351l9.459-9.461
		H25.688z"/>
	<g>
		<path fill="#0A7039" d="M39.618,12.02l-1.882,1.883c-0.467,0.466-1.082,0.699-1.697,0.699s-1.229-0.233-1.696-0.699l-1.921-1.922
			l-7.919,7.918c-0.053,0.056-0.104,0.097-0.157,0.142c0.219,0.224,0.523,0.362,0.859,0.362h21.59c0.337,0,0.641-0.141,0.859-0.362
			c-0.053-0.045-0.104-0.086-0.156-0.142L39.618,12.02z"/>
	</g>
	<g>
		<path fill="#0A7039" d="M24.542,4.101c-0.062-0.061-0.103-0.121-0.153-0.179C24.15,4.142,24,4.454,24,4.803v13.91l7.577-7.576
			L24.542,4.101z"/>
		<path fill="#0A7039" d="M47.536,4.101l-7.074,7.075L48,18.713V4.803c0-0.327-0.133-0.624-0.346-0.841
			C47.614,4.008,47.584,4.053,47.536,4.101z"/>
	</g>
</g>
<g>
	<path fill="#0A7039" d="M49.688,3.598l9.459,9.461c0.227,0.226,0.527,0.351,0.854,0.351s0.627-0.125,0.854-0.351l9.459-9.461
		H49.688z"/>
	<g>
		<path fill="#0A7039" d="M63.618,12.02l-1.882,1.883c-0.467,0.466-1.082,0.699-1.697,0.699s-1.229-0.233-1.696-0.699l-1.921-1.922
			l-7.919,7.918c-0.053,0.056-0.104,0.097-0.157,0.142c0.219,0.224,0.523,0.362,0.859,0.362h21.59c0.337,0,0.641-0.141,0.859-0.362
			c-0.053-0.045-0.104-0.086-0.156-0.142L63.618,12.02z"/>
	</g>
	<g>
		<path fill="#0A7039" d="M48.542,4.101c-0.062-0.061-0.103-0.121-0.153-0.179C48.15,4.142,48,4.454,48,4.803v13.91l7.577-7.576
			L48.542,4.101z"/>
		<path fill="#0A7039" d="M71.536,4.101l-7.074,7.075L72,18.713V4.803c0-0.327-0.133-0.624-0.346-0.841
			C71.614,4.008,71.584,4.053,71.536,4.101z"/>
	</g>
</g>
</svg>
